<mxfile host="Electron" modified="2023-11-12T03:52:45.520Z" agent="Mozilla/5.0 (Windows NT 10.0; Win64; x64) AppleWebKit/537.36 (KHTML, like Gecko) draw.io/22.0.2 Chrome/114.0.5735.289 Electron/25.8.4 Safari/537.36" etag="taz7jjg-2ik9DNcmv2Ef" version="22.0.2" type="device">
  <diagram name="Page-1" id="TUBN7GNmTM10_oJs2NAZ">
    <mxGraphModel dx="317" dy="475" grid="1" gridSize="10" guides="1" tooltips="1" connect="1" arrows="1" fold="1" page="1" pageScale="1" pageWidth="827" pageHeight="1169" math="0" shadow="0">
      <root>
        <mxCell id="0" />
        <mxCell id="1" parent="0" />
        <mxCell id="W1Bt9YQBh4HbKWt-7y-M-1" value="&lt;p&gt;&lt;font style=&quot;font-size: 34px;&quot;&gt;&lt;b&gt;192.168.100.100&lt;/b&gt;&lt;/font&gt;&lt;/p&gt;" style="text;html=1;align=center;verticalAlign=middle;resizable=0;points=[];autosize=1;strokeColor=none;fillColor=none;spacingRight=0;spacing=2;spacingLeft=0;spacingTop=0;horizontal=1;" vertex="1" parent="1">
          <mxGeometry x="120" y="115" width="270" height="80" as="geometry" />
        </mxCell>
        <mxCell id="W1Bt9YQBh4HbKWt-7y-M-2" value="" style="shape=curlyBracket;whiteSpace=wrap;html=1;rounded=1;flipH=1;labelPosition=right;verticalLabelPosition=middle;align=left;verticalAlign=middle;rotation=90;strokeWidth=2;" vertex="1" parent="1">
          <mxGeometry x="143.63" y="180" width="20" height="57.5" as="geometry" />
        </mxCell>
        <mxCell id="W1Bt9YQBh4HbKWt-7y-M-3" value="" style="shape=curlyBracket;whiteSpace=wrap;html=1;rounded=1;flipH=1;labelPosition=right;verticalLabelPosition=middle;align=left;verticalAlign=middle;rotation=90;strokeWidth=2;" vertex="1" parent="1">
          <mxGeometry x="212.63" y="180" width="20" height="57.5" as="geometry" />
        </mxCell>
        <mxCell id="W1Bt9YQBh4HbKWt-7y-M-4" value="" style="shape=curlyBracket;whiteSpace=wrap;html=1;rounded=1;flipH=1;labelPosition=right;verticalLabelPosition=middle;align=left;verticalAlign=middle;rotation=90;strokeWidth=2;" vertex="1" parent="1">
          <mxGeometry x="282.63" y="180" width="20" height="57.5" as="geometry" />
        </mxCell>
        <mxCell id="W1Bt9YQBh4HbKWt-7y-M-6" value="" style="shape=curlyBracket;whiteSpace=wrap;html=1;rounded=1;flipH=1;labelPosition=right;verticalLabelPosition=middle;align=left;verticalAlign=middle;rotation=90;strokeWidth=2;" vertex="1" parent="1">
          <mxGeometry x="346.38" y="180" width="20" height="57.5" as="geometry" />
        </mxCell>
        <mxCell id="W1Bt9YQBh4HbKWt-7y-M-7" value="&lt;font style=&quot;font-size: 14px;&quot;&gt;8 bits&lt;/font&gt;" style="text;html=1;align=center;verticalAlign=middle;resizable=0;points=[];autosize=1;strokeColor=none;fillColor=none;" vertex="1" parent="1">
          <mxGeometry x="123.63" y="180" width="60" height="30" as="geometry" />
        </mxCell>
        <mxCell id="W1Bt9YQBh4HbKWt-7y-M-8" value="&lt;font style=&quot;font-size: 14px;&quot;&gt;8 bits&lt;/font&gt;" style="text;html=1;align=center;verticalAlign=middle;resizable=0;points=[];autosize=1;strokeColor=none;fillColor=none;" vertex="1" parent="1">
          <mxGeometry x="192.63" y="180" width="60" height="30" as="geometry" />
        </mxCell>
        <mxCell id="W1Bt9YQBh4HbKWt-7y-M-9" value="&lt;font style=&quot;font-size: 14px;&quot;&gt;8 bits&lt;/font&gt;" style="text;html=1;align=center;verticalAlign=middle;resizable=0;points=[];autosize=1;strokeColor=none;fillColor=none;" vertex="1" parent="1">
          <mxGeometry x="262.63" y="180" width="60" height="30" as="geometry" />
        </mxCell>
        <mxCell id="W1Bt9YQBh4HbKWt-7y-M-10" value="&lt;font style=&quot;font-size: 14px;&quot;&gt;8 bits&lt;/font&gt;" style="text;html=1;align=center;verticalAlign=middle;resizable=0;points=[];autosize=1;strokeColor=none;fillColor=none;" vertex="1" parent="1">
          <mxGeometry x="326.38" y="180" width="60" height="30" as="geometry" />
        </mxCell>
        <mxCell id="W1Bt9YQBh4HbKWt-7y-M-11" value="1100 0000" style="text;html=1;align=center;verticalAlign=middle;resizable=0;points=[];autosize=1;strokeColor=none;fillColor=none;" vertex="1" parent="1">
          <mxGeometry x="113.63" y="220" width="80" height="30" as="geometry" />
        </mxCell>
        <mxCell id="W1Bt9YQBh4HbKWt-7y-M-12" value="1100 0000" style="text;html=1;align=center;verticalAlign=middle;resizable=0;points=[];autosize=1;strokeColor=none;fillColor=none;" vertex="1" parent="1">
          <mxGeometry x="182.63" y="220" width="80" height="30" as="geometry" />
        </mxCell>
      </root>
    </mxGraphModel>
  </diagram>
</mxfile>
